<svg xmlns="http://www.w3.org/2000/svg" xmlns:xlink="http://www.w3.org/1999/xlink" version="1.1" width="256" height="256" viewBox="0 0 256 256" xml:space="preserve">

<defs>
</defs>
<g style="stroke: none; stroke-width: 0; stroke-dasharray: none; stroke-linecap: butt; stroke-linejoin: miter; stroke-miterlimit: 10; fill: none; fill-rule: nonzero; opacity: 1;" transform="translate(1.4065934065934016 1.4065934065934016) scale(2.81 2.81)" >
	<path d="M 45.186 0 l 0.49 22.5 L 46.044 45 c 0.106 7.5 0.425 15 0.245 22.5 c -0.085 3.75 -0.184 7.5 -0.363 11.25 c -0.17 3.75 -0.388 7.5 -0.739 11.25 h -0.245 c -0.351 -3.75 -0.569 -7.5 -0.739 -11.25 c -0.179 -3.75 -0.278 -7.5 -0.363 -11.25 c -0.18 -7.5 0.139 -15 0.245 -22.5 l 0.367 -22.5 L 44.942 0 H 45.186 z" style="stroke: none; stroke-width: 1; stroke-dasharray: none; stroke-linecap: butt; stroke-linejoin: miter; stroke-miterlimit: 10; fill: rgb(214,155,51); fill-rule: nonzero; opacity: 1;" transform=" matrix(1 0 0 1 0 0) " stroke-linecap="round" />
	<ellipse cx="38.563" cy="18.319" rx="4.613" ry="9.199" style="stroke: none; stroke-width: 1; stroke-dasharray: none; stroke-linecap: butt; stroke-linejoin: miter; stroke-miterlimit: 10; fill: rgb(229,168,61); fill-rule: nonzero; opacity: 1;" transform=" matrix(0.7071 -0.7071 0.7071 0.7071 -1.6617 32.6319) "/>
	<path d="M 32.055 11.817 c -1.207 2.524 0.058 6.581 3.243 9.766 s 7.242 4.45 9.766 3.243 L 32.055 11.817 z" style="stroke: none; stroke-width: 1; stroke-dasharray: none; stroke-linecap: butt; stroke-linejoin: miter; stroke-miterlimit: 10; fill: rgb(214,155,51); fill-rule: nonzero; opacity: 1;" transform=" matrix(1 0 0 1 0 0) " stroke-linecap="round" />
	<ellipse cx="51.568999999999996" cy="18.323" rx="9.199" ry="4.613" style="stroke: none; stroke-width: 1; stroke-dasharray: none; stroke-linecap: butt; stroke-linejoin: miter; stroke-miterlimit: 10; fill: rgb(214,155,51); fill-rule: nonzero; opacity: 1;" transform=" matrix(0.7071 -0.7071 0.7071 0.7071 2.1487 41.8309) "/>
	<path d="M 58.073 11.817 c 1.207 2.524 -0.058 6.581 -3.243 9.766 c -3.185 3.185 -7.242 4.45 -9.766 3.243 L 58.073 11.817 z" style="stroke: none; stroke-width: 1; stroke-dasharray: none; stroke-linecap: butt; stroke-linejoin: miter; stroke-miterlimit: 10; fill: rgb(229,168,61); fill-rule: nonzero; opacity: 1;" transform=" matrix(1 0 0 1 0 0) " stroke-linecap="round" />
	<ellipse cx="38.563" cy="18.319" rx="4.613" ry="9.199" style="stroke: none; stroke-width: 1; stroke-dasharray: none; stroke-linecap: butt; stroke-linejoin: miter; stroke-miterlimit: 10; fill: rgb(229,168,61); fill-rule: nonzero; opacity: 1;" transform=" matrix(0.7071 -0.7071 0.7071 0.7071 -1.6617 32.6319) "/>
	<path d="M 32.055 11.817 c -1.207 2.524 0.058 6.581 3.243 9.766 s 7.242 4.45 9.766 3.243 C 41.807 19.574 37.387 15.309 32.055 11.817 z" style="stroke: none; stroke-width: 1; stroke-dasharray: none; stroke-linecap: butt; stroke-linejoin: miter; stroke-miterlimit: 10; fill: rgb(214,155,51); fill-rule: nonzero; opacity: 1;" transform=" matrix(1 0 0 1 0 0) " stroke-linecap="round" />
	<ellipse cx="51.568999999999996" cy="18.323" rx="9.199" ry="4.613" style="stroke: none; stroke-width: 1; stroke-dasharray: none; stroke-linecap: butt; stroke-linejoin: miter; stroke-miterlimit: 10; fill: rgb(214,155,51); fill-rule: nonzero; opacity: 1;" transform=" matrix(0.7071 -0.7071 0.7071 0.7071 2.1487 41.8309) "/>
	<path d="M 58.073 11.817 c 1.207 2.524 -0.058 6.581 -3.243 9.766 c -3.185 3.185 -7.242 4.45 -9.766 3.243 C 48.221 19.705 52.557 15.369 58.073 11.817 z" style="stroke: none; stroke-width: 1; stroke-dasharray: none; stroke-linecap: butt; stroke-linejoin: miter; stroke-miterlimit: 10; fill: rgb(229,168,61); fill-rule: nonzero; opacity: 1;" transform=" matrix(1 0 0 1 0 0) " stroke-linecap="round" />
	<ellipse cx="38.563" cy="25.058999999999997" rx="4.613" ry="9.199" style="stroke: none; stroke-width: 1; stroke-dasharray: none; stroke-linecap: butt; stroke-linejoin: miter; stroke-miterlimit: 10; fill: rgb(229,168,61); fill-rule: nonzero; opacity: 1;" transform=" matrix(0.7071 -0.7071 0.7071 0.7071 -6.4247 34.6047) "/>
	<path d="M 32.055 18.553 c -1.207 2.524 0.058 6.581 3.243 9.766 s 7.242 4.45 9.766 3.243 C 41.807 26.31 37.387 22.045 32.055 18.553 z" style="stroke: none; stroke-width: 1; stroke-dasharray: none; stroke-linecap: butt; stroke-linejoin: miter; stroke-miterlimit: 10; fill: rgb(214,155,51); fill-rule: nonzero; opacity: 1;" transform=" matrix(1 0 0 1 0 0) " stroke-linecap="round" />
	<ellipse cx="51.568999999999996" cy="25.063" rx="9.199" ry="4.613" style="stroke: none; stroke-width: 1; stroke-dasharray: none; stroke-linecap: butt; stroke-linejoin: miter; stroke-miterlimit: 10; fill: rgb(214,155,51); fill-rule: nonzero; opacity: 1;" transform=" matrix(0.7071 -0.7071 0.7071 0.7071 -2.6143 43.8038) "/>
	<path d="M 58.073 18.553 c 1.207 2.524 -0.058 6.581 -3.243 9.766 c -3.185 3.185 -7.242 4.45 -9.766 3.243 C 48.221 26.441 52.557 22.104 58.073 18.553 z" style="stroke: none; stroke-width: 1; stroke-dasharray: none; stroke-linecap: butt; stroke-linejoin: miter; stroke-miterlimit: 10; fill: rgb(229,168,61); fill-rule: nonzero; opacity: 1;" transform=" matrix(1 0 0 1 0 0) " stroke-linecap="round" />
	<ellipse cx="38.563" cy="31.789" rx="4.613" ry="9.199" style="stroke: none; stroke-width: 1; stroke-dasharray: none; stroke-linecap: butt; stroke-linejoin: miter; stroke-miterlimit: 10; fill: rgb(229,168,61); fill-rule: nonzero; opacity: 1;" transform=" matrix(0.7071 -0.7071 0.7071 0.7071 -11.1876 36.5776) "/>
	<path d="M 32.055 25.289 c -1.207 2.524 0.058 6.581 3.243 9.766 c 3.185 3.185 7.242 4.45 9.766 3.243 C 41.807 33.046 37.387 28.78 32.055 25.289 z" style="stroke: none; stroke-width: 1; stroke-dasharray: none; stroke-linecap: butt; stroke-linejoin: miter; stroke-miterlimit: 10; fill: rgb(214,155,51); fill-rule: nonzero; opacity: 1;" transform=" matrix(1 0 0 1 0 0) " stroke-linecap="round" />
	<ellipse cx="51.568999999999996" cy="31.793" rx="9.199" ry="4.613" style="stroke: none; stroke-width: 1; stroke-dasharray: none; stroke-linecap: butt; stroke-linejoin: miter; stroke-miterlimit: 10; fill: rgb(214,155,51); fill-rule: nonzero; opacity: 1;" transform=" matrix(0.7071 -0.7071 0.7071 0.7071 -7.3772 45.7766) "/>
	<path d="M 58.073 25.289 c 1.207 2.524 -0.058 6.581 -3.243 9.766 c -3.185 3.185 -7.242 4.45 -9.766 3.243 C 48.221 33.177 52.557 28.84 58.073 25.289 z" style="stroke: none; stroke-width: 1; stroke-dasharray: none; stroke-linecap: butt; stroke-linejoin: miter; stroke-miterlimit: 10; fill: rgb(229,168,61); fill-rule: nonzero; opacity: 1;" transform=" matrix(1 0 0 1 0 0) " stroke-linecap="round" />
	<ellipse cx="38.563" cy="38.528999999999996" rx="4.613" ry="9.199" style="stroke: none; stroke-width: 1; stroke-dasharray: none; stroke-linecap: butt; stroke-linejoin: miter; stroke-miterlimit: 10; fill: rgb(229,168,61); fill-rule: nonzero; opacity: 1;" transform=" matrix(0.7071 -0.7071 0.7071 0.7071 -15.9506 38.5505) "/>
	<path d="M 32.055 32.025 c -1.207 2.524 0.058 6.581 3.243 9.766 s 7.242 4.45 9.766 3.243 C 41.807 39.782 37.387 35.516 32.055 32.025 z" style="stroke: none; stroke-width: 1; stroke-dasharray: none; stroke-linecap: butt; stroke-linejoin: miter; stroke-miterlimit: 10; fill: rgb(214,155,51); fill-rule: nonzero; opacity: 1;" transform=" matrix(1 0 0 1 0 0) " stroke-linecap="round" />
	<ellipse cx="51.568999999999996" cy="38.533" rx="9.199" ry="4.613" style="stroke: none; stroke-width: 1; stroke-dasharray: none; stroke-linecap: butt; stroke-linejoin: miter; stroke-miterlimit: 10; fill: rgb(214,155,51); fill-rule: nonzero; opacity: 1;" transform=" matrix(0.7071 -0.7071 0.7071 0.7071 -12.1402 47.7495) "/>
	<path d="M 58.073 32.025 c 1.207 2.524 -0.058 6.581 -3.243 9.766 c -3.185 3.185 -7.242 4.45 -9.766 3.243 C 48.221 39.912 52.557 35.576 58.073 32.025 z" style="stroke: none; stroke-width: 1; stroke-dasharray: none; stroke-linecap: butt; stroke-linejoin: miter; stroke-miterlimit: 10; fill: rgb(229,168,61); fill-rule: nonzero; opacity: 1;" transform=" matrix(1 0 0 1 0 0) " stroke-linecap="round" />
	<ellipse cx="38.563" cy="45.269" rx="4.613" ry="9.199" style="stroke: none; stroke-width: 1; stroke-dasharray: none; stroke-linecap: butt; stroke-linejoin: miter; stroke-miterlimit: 10; fill: rgb(229,168,61); fill-rule: nonzero; opacity: 1;" transform=" matrix(0.7071 -0.7071 0.7071 0.7071 -20.7135 40.5234) "/>
	<path d="M 32.055 38.76 c -1.207 2.524 0.058 6.581 3.243 9.766 c 3.185 3.185 7.242 4.45 9.766 3.243 C 41.807 46.518 37.387 42.252 32.055 38.76 z" style="stroke: none; stroke-width: 1; stroke-dasharray: none; stroke-linecap: butt; stroke-linejoin: miter; stroke-miterlimit: 10; fill: rgb(214,155,51); fill-rule: nonzero; opacity: 1;" transform=" matrix(1 0 0 1 0 0) " stroke-linecap="round" />
	<ellipse cx="51.568999999999996" cy="45.263" rx="9.199" ry="4.613" style="stroke: none; stroke-width: 1; stroke-dasharray: none; stroke-linecap: butt; stroke-linejoin: miter; stroke-miterlimit: 10; fill: rgb(214,155,51); fill-rule: nonzero; opacity: 1;" transform=" matrix(0.7071 -0.7071 0.7071 0.7071 -16.9032 49.7224) "/>
	<path d="M 58.073 38.76 c 1.207 2.524 -0.058 6.581 -3.243 9.766 c -3.185 3.185 -7.242 4.45 -9.766 3.243 C 48.221 46.648 52.557 42.312 58.073 38.76 z" style="stroke: none; stroke-width: 1; stroke-dasharray: none; stroke-linecap: butt; stroke-linejoin: miter; stroke-miterlimit: 10; fill: rgb(229,168,61); fill-rule: nonzero; opacity: 1;" transform=" matrix(1 0 0 1 0 0) " stroke-linecap="round" />
	<ellipse cx="38.563" cy="51.998999999999995" rx="4.613" ry="9.199" style="stroke: none; stroke-width: 1; stroke-dasharray: none; stroke-linecap: butt; stroke-linejoin: miter; stroke-miterlimit: 10; fill: rgb(229,168,61); fill-rule: nonzero; opacity: 1;" transform=" matrix(0.7071 -0.7071 0.7071 0.7071 -25.4765 42.4963) "/>
	<path d="M 32.055 45.496 c -1.207 2.524 0.058 6.581 3.243 9.766 c 3.185 3.185 7.242 4.45 9.766 3.243 C 41.807 53.253 37.387 48.988 32.055 45.496 z" style="stroke: none; stroke-width: 1; stroke-dasharray: none; stroke-linecap: butt; stroke-linejoin: miter; stroke-miterlimit: 10; fill: rgb(214,155,51); fill-rule: nonzero; opacity: 1;" transform=" matrix(1 0 0 1 0 0) " stroke-linecap="round" />
	<ellipse cx="51.568999999999996" cy="52.003" rx="9.199" ry="4.613" style="stroke: none; stroke-width: 1; stroke-dasharray: none; stroke-linecap: butt; stroke-linejoin: miter; stroke-miterlimit: 10; fill: rgb(214,155,51); fill-rule: nonzero; opacity: 1;" transform=" matrix(0.7071 -0.7071 0.7071 0.7071 -21.6661 51.6953) "/>
	<path d="M 58.073 45.496 c 1.207 2.524 -0.058 6.581 -3.243 9.766 c -3.185 3.185 -7.242 4.45 -9.766 3.243 C 48.221 53.384 52.557 49.048 58.073 45.496 z" style="stroke: none; stroke-width: 1; stroke-dasharray: none; stroke-linecap: butt; stroke-linejoin: miter; stroke-miterlimit: 10; fill: rgb(229,168,61); fill-rule: nonzero; opacity: 1;" transform=" matrix(1 0 0 1 0 0) " stroke-linecap="round" />
	<ellipse cx="38.563" cy="58.739" rx="4.613" ry="9.199" style="stroke: none; stroke-width: 1; stroke-dasharray: none; stroke-linecap: butt; stroke-linejoin: miter; stroke-miterlimit: 10; fill: rgb(229,168,61); fill-rule: nonzero; opacity: 1;" transform=" matrix(0.7071 -0.7071 0.7071 0.7071 -30.2394 44.4691) "/>
	<path d="M 32.055 52.232 c -1.207 2.524 0.058 6.581 3.243 9.766 c 3.185 3.185 7.242 4.45 9.766 3.243 C 41.807 59.989 37.387 55.724 32.055 52.232 z" style="stroke: none; stroke-width: 1; stroke-dasharray: none; stroke-linecap: butt; stroke-linejoin: miter; stroke-miterlimit: 10; fill: rgb(214,155,51); fill-rule: nonzero; opacity: 1;" transform=" matrix(1 0 0 1 0 0) " stroke-linecap="round" />
	<ellipse cx="51.568999999999996" cy="58.733" rx="9.199" ry="4.613" style="stroke: none; stroke-width: 1; stroke-dasharray: none; stroke-linecap: butt; stroke-linejoin: miter; stroke-miterlimit: 10; fill: rgb(214,155,51); fill-rule: nonzero; opacity: 1;" transform=" matrix(0.7071 -0.7071 0.7071 0.7071 -26.4291 53.6682) "/>
	<path d="M 58.073 52.232 c 1.207 2.524 -0.058 6.581 -3.243 9.766 c -3.185 3.185 -7.242 4.45 -9.766 3.243 C 48.221 60.12 52.557 55.784 58.073 52.232 z" style="stroke: none; stroke-width: 1; stroke-dasharray: none; stroke-linecap: butt; stroke-linejoin: miter; stroke-miterlimit: 10; fill: rgb(229,168,61); fill-rule: nonzero; opacity: 1;" transform=" matrix(1 0 0 1 0 0) " stroke-linecap="round" />
	<path d="M 45 76.17 c -4.66 -9.394 -15.837 -16.163 -29.284 -22.016 c 9.134 5.614 20.623 15.415 26.333 25.035 C 31.217 65.801 19.486 67.433 7.166 78.915 C 26.051 65.684 33.8 72.843 45 89.406 V 76.17 z" style="stroke: none; stroke-width: 1; stroke-dasharray: none; stroke-linecap: butt; stroke-linejoin: miter; stroke-miterlimit: 10; fill: rgb(185,166,29); fill-rule: nonzero; opacity: 1;" transform=" matrix(1 0 0 1 0 0) " stroke-linecap="round" />
	<path d="M 45 76.17 c 4.66 -9.394 15.837 -16.163 29.284 -22.016 C 65.15 59.769 53.662 69.569 47.951 79.19 c 10.832 -13.389 22.563 -11.756 34.882 -0.275 C 63.949 65.684 56.2 72.843 45 89.406 V 76.17 z" style="stroke: none; stroke-width: 1; stroke-dasharray: none; stroke-linecap: butt; stroke-linejoin: miter; stroke-miterlimit: 10; fill: rgb(206,185,35); fill-rule: nonzero; opacity: 1;" transform=" matrix(1 0 0 1 0 0) " stroke-linecap="round" />
</g>
</svg>