<svg xmlns="http://www.w3.org/2000/svg" xmlns:xlink="http://www.w3.org/1999/xlink" version="1.1" width="256" height="256" viewBox="0 0 256 256" xml:space="preserve">

<defs>
</defs>
<g style="stroke: none; stroke-width: 0; stroke-dasharray: none; stroke-linecap: butt; stroke-linejoin: miter; stroke-miterlimit: 10; fill: none; fill-rule: nonzero; opacity: 1;" transform="translate(1.4065934065934016 1.4065934065934016) scale(2.81 2.81)" >
	<path d="M 68.85 90 h -47.7 C 9.469 90 0 80.531 0 68.85 v -47.7 C 0 9.469 9.469 0 21.15 0 h 47.7 C 80.531 0 90 9.469 90 21.15 v 47.7 C 90 80.531 80.531 90 68.85 90 z" style="stroke: none; stroke-width: 1; stroke-dasharray: none; stroke-linecap: butt; stroke-linejoin: miter; stroke-miterlimit: 10; fill: rgb(210,175,118); fill-rule: nonzero; opacity: 1;" transform=" matrix(1 0 0 1 0 0) " stroke-linecap="round" />
	<path d="M 76.92 48.315 c -8.644 6.384 -21.202 9.773 -32 9.773 c -15.133 0 -28.768 -5.596 -39.067 -14.897 c -0.814 -0.736 -0.079 -1.734 0.893 -1.156 c 11.14 6.463 24.88 10.378 39.094 10.378 c 9.589 0 20.125 -1.997 29.819 -6.095 C 77.104 45.661 78.339 47.264 76.92 48.315 z M 80.52 44.216 c -1.103 -1.419 -7.304 -0.683 -10.115 -0.342 c -0.841 0.105 -0.972 -0.631 -0.21 -1.182 c 4.939 -3.468 13.057 -2.47 14.003 -1.314 c 0.946 1.182 -0.263 9.3 -4.887 13.189 c -0.709 0.604 -1.392 0.289 -1.077 -0.499 C 79.285 51.468 81.623 45.609 80.52 44.216 z" style="stroke: none; stroke-width: 1; stroke-dasharray: none; stroke-linecap: butt; stroke-linejoin: miter; stroke-miterlimit: 10; fill: rgb(2,1,1); fill-rule: nonzero; opacity: 1;" transform=" matrix(1 0 0 1 0 0) " stroke-linecap="round" />
	<polygon points="31.8,17.94 36.1,22.25 36.29,22.25 40.6,17.94 44.9,22.25 45.1,22.25 49.4,17.94 53.71,22.25 53.9,22.25 58.2,17.94 62.01,21.74 62.01,0 27.99,0 27.99,21.74 " style="stroke: none; stroke-width: 1; stroke-dasharray: none; stroke-linecap: butt; stroke-linejoin: miter; stroke-miterlimit: 10; fill: rgb(56,165,222); fill-rule: nonzero; opacity: 1;" transform="  matrix(1 0 0 1 0 0) "/>
	<polygon points="62.51,22.95 58.2,18.65 54.1,22.75 53.5,22.75 49.4,18.65 45.3,22.75 44.7,22.75 40.6,18.65 36.5,22.75 35.9,22.75 31.8,18.65 27.49,22.95 27.49,0 28.49,0 28.49,20.54 31.8,17.24 36.2,21.64 40.6,17.24 45,21.64 49.4,17.24 53.8,21.64 58.2,17.24 61.51,20.54 61.51,0 62.51,0 " style="stroke: none; stroke-width: 1; stroke-dasharray: none; stroke-linecap: butt; stroke-linejoin: miter; stroke-miterlimit: 10; fill: rgb(74,149,170); fill-rule: nonzero; opacity: 1;" transform="  matrix(1 0 0 1 0 0) "/>
	<path d="M 68.588 90 H 21.412 C 9.605 90 0 80.395 0 68.588 V 21.412 C 0 9.605 9.605 0 21.412 0 h 47.176 C 80.395 0 90 9.605 90 21.412 v 47.176 C 90 80.395 80.395 90 68.588 90 z M 21.412 0.989 c -11.261 0 -20.423 9.162 -20.423 20.423 v 47.176 c 0 11.262 9.162 20.423 20.423 20.423 h 47.176 c 11.262 0 20.423 -9.162 20.423 -20.423 V 21.412 c 0 -11.261 -9.162 -20.423 -20.423 -20.423 H 21.412 z" style="stroke: none; stroke-width: 1; stroke-dasharray: none; stroke-linecap: butt; stroke-linejoin: miter; stroke-miterlimit: 10; fill: rgb(187,155,109); fill-rule: nonzero; opacity: 1;" transform=" matrix(1 0 0 1 0 0) " stroke-linecap="round" />
</g>
</svg>