<svg xmlns="http://www.w3.org/2000/svg" xmlns:xlink="http://www.w3.org/1999/xlink" version="1.1" width="256" height="256" viewBox="0 0 256 256" xml:space="preserve">

<defs>
</defs>
<g style="stroke: none; stroke-width: 0; stroke-dasharray: none; stroke-linecap: butt; stroke-linejoin: miter; stroke-miterlimit: 10; fill: none; fill-rule: nonzero; opacity: 1;" transform="translate(1.4065934065934016 1.4065934065934016) scale(2.81 2.81)" >
	<path d="M 2.949 47.892 c 0 1.042 0.229 1.843 0.528 2.327 c 0.392 0.634 0.977 0.903 1.573 0.903 c 0.769 0 1.472 -0.191 2.828 -2.066 c 1.086 -1.503 2.366 -3.612 3.227 -4.935 l 1.458 -2.241 c 1.013 -1.556 2.185 -3.286 3.53 -4.458 c 1.097 -0.957 2.281 -1.489 3.473 -1.489 c 2 0 3.906 1.159 5.364 3.333 c 1.596 2.381 2.371 5.38 2.371 8.475 c 0 1.84 -0.363 3.192 -0.98 4.26 c -0.596 1.033 -1.758 2.065 -3.713 2.065 v -2.945 c 1.674 0 2.091 -1.538 2.091 -3.298 c 0 -2.508 -0.585 -5.292 -1.873 -7.281 c -0.914 -1.411 -2.099 -2.273 -3.403 -2.273 c -1.41 0 -2.544 1.063 -3.819 2.959 c -0.678 1.007 -1.374 2.235 -2.155 3.62 l -0.86 1.524 c -1.728 3.064 -2.166 3.761 -3.029 4.913 c -1.514 2.016 -2.807 2.781 -4.509 2.781 c -2.019 0 -3.296 -0.874 -4.087 -2.192 C 0.317 50.801 0 49.392 0 47.786 L 2.949 47.892 z" style="stroke: none; stroke-width: 1; stroke-dasharray: none; stroke-linecap: butt; stroke-linejoin: miter; stroke-miterlimit: 10; fill: rgb(0,129,251); fill-rule: nonzero; opacity: 1;" transform=" matrix(1 0 0 1 0 0) " stroke-linecap="round" />
	<linearGradient id="SVGID_2" gradientUnits="userSpaceOnUse" gradientTransform="matrix(1 0 0 -1 0 92)"  x1="5.918" y1="47.4699" x2="24.7154" y2="46.5205">
<stop offset="0%" style="stop-color:rgb(0,100,225);stop-opacity: 1"/>
<stop offset="40%" style="stop-color:rgb(0,100,225);stop-opacity: 1"/>
<stop offset="83%" style="stop-color:rgb(0,115,238);stop-opacity: 1"/>
<stop offset="100%" style="stop-color:rgb(0,130,251);stop-opacity: 1"/>
</linearGradient>
<path d="M 2.325 39.475 c 1.352 -2.084 3.303 -3.541 5.541 -3.541 c 1.296 0 2.584 0.384 3.929 1.482 c 1.472 1.201 3.04 3.178 4.997 6.438 l 0.702 1.17 c 1.694 2.822 2.657 4.273 3.221 4.958 c 0.725 0.879 1.233 1.141 1.893 1.141 c 1.674 0 2.091 -1.538 2.091 -3.298 l 2.601 -0.082 c 0 1.84 -0.363 3.192 -0.98 4.26 c -0.596 1.033 -1.758 2.065 -3.713 2.065 c -1.215 0 -2.292 -0.264 -3.482 -1.387 c -0.915 -0.862 -1.985 -2.393 -2.808 -3.77 l -2.448 -4.09 c -1.228 -2.053 -2.355 -3.583 -3.008 -4.276 c -0.702 -0.745 -1.603 -1.645 -3.043 -1.645 c -1.165 0 -2.154 0.817 -2.982 2.068 L 2.325 39.475 z" style="stroke: none; stroke-width: 1; stroke-dasharray: none; stroke-linecap: butt; stroke-linejoin: miter; stroke-miterlimit: 10; fill: url(#SVGID_2); fill-rule: nonzero; opacity: 1;" transform=" matrix(1 0 0 1 0 0) " stroke-linecap="round" />
	<linearGradient id="SVGID_3" gradientUnits="userSpaceOnUse" gradientTransform="matrix(1 0 0 -1 0 92)"  x1="3.9328" y1="42.8703" x2="3.9328" y2="49.8006">
<stop offset="0%" style="stop-color:rgb(0,130,251);stop-opacity: 1"/>
<stop offset="100%" style="stop-color:rgb(0,100,224);stop-opacity: 1"/>
</linearGradient>
<path d="M 7.818 38.898 c -1.165 0 -2.154 0.817 -2.982 2.068 c -1.171 1.767 -1.887 4.398 -1.887 6.926 c 0 1.042 0.229 1.843 0.528 2.327 l -2.514 1.656 C 0.317 50.801 0 49.392 0 47.786 c 0 -2.919 0.801 -5.962 2.325 -8.312 c 1.352 -2.084 3.303 -3.541 5.541 -3.541 L 7.818 38.898 z" style="stroke: none; stroke-width: 1; stroke-dasharray: none; stroke-linecap: butt; stroke-linejoin: miter; stroke-miterlimit: 10; fill: url(#SVGID_3); fill-rule: nonzero; opacity: 1;" transform=" matrix(1 0 0 1 0 0) " stroke-linecap="round" />
	<path d="M 33.032 36.507 h 3.411 l 5.8 10.492 l 5.801 -10.492 h 3.337 v 17.241 h -2.783 V 40.534 l -5.087 9.15 h -2.611 l -5.086 -9.15 v 13.213 h -2.783 V 36.507 z M 60.1 42.935 c -1.996 0 -3.197 1.502 -3.485 3.362 h 6.773 C 63.248 44.381 62.143 42.935 60.1 42.935 L 60.1 42.935 z M 53.856 47.356 c 0 -3.913 2.529 -6.761 6.292 -6.761 c 3.702 0 5.912 2.812 5.912 6.97 v 0.764 h -9.445 c 0.335 2.023 1.678 3.386 3.842 3.386 c 1.727 0 2.806 -0.527 3.83 -1.491 l 1.478 1.81 c -1.393 1.281 -3.164 2.019 -5.407 2.019 C 56.284 54.055 53.856 51.084 53.856 47.356 z M 69.434 43.182 h -2.561 v -2.278 h 2.561 v -3.768 h 2.685 v 3.768 h 3.891 v 2.278 h -3.891 v 5.775 c 0 1.972 0.63 2.672 2.18 2.672 c 0.707 0 1.113 -0.061 1.712 -0.16 v 2.254 c -0.746 0.211 -1.458 0.308 -2.229 0.308 c -2.898 0 -4.347 -1.584 -4.347 -4.753 L 69.434 43.182 z M 87.315 45.398 c -0.539 -1.361 -1.742 -2.364 -3.51 -2.364 c -2.297 0 -3.768 1.63 -3.768 4.285 c 0 2.589 1.354 4.298 3.658 4.298 c 1.811 0 3.104 -1.054 3.62 -2.365 V 45.398 z M 90 53.747 h -2.635 v -1.798 c -0.737 1.059 -2.077 2.106 -4.248 2.106 c -3.492 0 -5.825 -2.923 -5.825 -6.736 c 0 -3.849 2.39 -6.724 5.973 -6.724 c 1.772 0 3.161 0.708 4.1 1.959 v -1.65 H 90 V 53.747 z" style="stroke: none; stroke-width: 1; stroke-dasharray: none; stroke-linecap: butt; stroke-linejoin: miter; stroke-miterlimit: 10; fill: rgb(25,40,48); fill-rule: nonzero; opacity: 1;" transform=" matrix(1 0 0 1 0 0) " stroke-linecap="round" />
</g>
</svg>